# xmcd
#
# Track frame offsets:
#	150
#	22410
#	45906
#	68757
#	87717
#	109338
#	132255
#	157114
#	179422
#	205638
#	228285
#	254636
#
# Disc length: 3739 seconds
#
# Revision: 0
# Processed by: cddbd v1.5.2PL0 Copyright (c) Steve Scherf et al.
# Submitted via: audiograbber 1.83.01
#
DISCID=ac0e990c
DTITLE=Donald - Train Of Love
DYEAR=2012
DGENRE=R&B
TTITLE0=Denial 
TTITLE1=I Deserve
TTITLE2=Your Joy
TTITLE3=Mirage
TTITLE4=The One
TTITLE5=I Swear
TTITLE6=Over The Moon
TTITLE7=Dance With Me
TTITLE8=Everlasting Love 
TTITLE9=Carry Me
TTITLE10=Dance With Me (Remix)
TTITLE11=Why
EXTD=
EXTT0=
EXTT1=
EXTT2=
EXTT3=
EXTT4=
EXTT5=
EXTT6=
EXTT7=
EXTT8=
EXTT9=
EXTT10=
EXTT11=
PLAYORDER=
